<mxfile host="Electron" modified="2023-07-06T21:39:41.529Z" agent="Mozilla/5.0 (Macintosh; Intel Mac OS X 10_15_7) AppleWebKit/537.36 (KHTML, like Gecko) draw.io/21.6.1 Chrome/112.0.5615.204 Electron/24.6.1 Safari/537.36" etag="ANxoUPbLcG8H4RkbiyIV" version="21.6.1" type="device">
  <diagram name="Page-1" id="ztVuY390IofEDDErO4NB">
    <mxGraphModel dx="1555" dy="712" grid="0" gridSize="10" guides="0" tooltips="1" connect="1" arrows="1" fold="1" page="0" pageScale="1" pageWidth="850" pageHeight="1100" math="0" shadow="0">
      <root>
        <mxCell id="0" />
        <mxCell id="1" parent="0" />
        <mxCell id="HPb9iFdF9YaHOfAAJQnL-8" value="" style="rounded=1;whiteSpace=wrap;html=1;fillColor=#f8cecc;strokeColor=#b85450;" parent="1" vertex="1">
          <mxGeometry x="261" y="240" width="287" height="267" as="geometry" />
        </mxCell>
        <mxCell id="Erepa9TIJoupjKRTR-r9-5" value="" style="rounded=1;whiteSpace=wrap;html=1;fontSize=14;fillColor=#dae8fc;strokeColor=#6c8ebf;" parent="1" vertex="1">
          <mxGeometry x="307" y="454" width="193" height="41" as="geometry" />
        </mxCell>
        <mxCell id="HPb9iFdF9YaHOfAAJQnL-2" value="Bastion Host" style="text;html=1;align=center;verticalAlign=middle;resizable=0;points=[];autosize=1;strokeColor=none;fillColor=none;" parent="1" vertex="1">
          <mxGeometry x="22" y="430" width="86" height="26" as="geometry" />
        </mxCell>
        <mxCell id="HPb9iFdF9YaHOfAAJQnL-9" value="&lt;font style=&quot;font-size: 14px;&quot;&gt;OpenShift Cluster&lt;/font&gt;" style="text;html=1;align=center;verticalAlign=middle;resizable=0;points=[];autosize=1;strokeColor=none;fillColor=none;" parent="1" vertex="1">
          <mxGeometry x="338" y="241" width="129" height="29" as="geometry" />
        </mxCell>
        <mxCell id="HPb9iFdF9YaHOfAAJQnL-10" value="" style="sketch=0;aspect=fixed;html=1;points=[];align=center;image;fontSize=12;image=img/lib/mscae/OpenShift.svg;" parent="1" vertex="1">
          <mxGeometry x="268" y="255" width="55.44" height="51" as="geometry" />
        </mxCell>
        <mxCell id="HPb9iFdF9YaHOfAAJQnL-42" value="" style="group" parent="1" vertex="1" connectable="0">
          <mxGeometry x="469" y="323" width="66" height="57" as="geometry" />
        </mxCell>
        <mxCell id="HPb9iFdF9YaHOfAAJQnL-23" value="" style="rounded=1;whiteSpace=wrap;html=1;fontSize=14;" parent="HPb9iFdF9YaHOfAAJQnL-42" vertex="1">
          <mxGeometry width="66" height="57" as="geometry" />
        </mxCell>
        <mxCell id="HPb9iFdF9YaHOfAAJQnL-24" value="" style="shape=image;verticalLabelPosition=bottom;labelBackgroundColor=default;verticalAlign=top;aspect=fixed;imageAspect=0;image=data:image/png,iVBORw0KGgoAAAANSUhEUgAAAJYAAABxCAYAAAA3QFrYAAAMPWlDQ1BJQ0MgUHJvZmlsZQAASImVVwdYU8kWnluSkEBooUsJvQkiNYCUEFrovdkISYBQYgwEFTu6qODaxQI2dFVEwUqzI4qFRbH3xYKKsi4W7MqbFNB1X/ne+b6597//nPnPmXPnlgFA7QRHJMpD1QHIFxaK40IC6CmpaXTSU4AAFFCADtDjcAtEzJiYCABt6Px3e3cdekO74iDV+mf/fzUNHr+ACwASA3EGr4CbD/FBAPAqrkhcCABRyptPKRRJMWxASwwThHihFGfJcZUUZ8jxXplPQhwL4jYAlFQ4HHEWAKqXIE8v4mZBDdV+iJ2EPIEQADU6xL75+ZN4EKdDbAN9RBBL9RkZP+hk/U0zY1iTw8kaxvK5yEwpUFAgyuNM+z/L8b8tP08yFMMKNpVscWicdM6wbjdzJ4VLsQrEfcKMqGiINSH+IODJ/CFGKdmS0ES5P2rILWDBmsG7DFAnHicwHGJDiIOFeVERCj4jUxDMhhiuEHSqoJCdALEexAv5BUHxCp/N4klxilhoQ6aYxVTwZzliWVxprPuS3ESmQv91Np+t0MdUi7MTkiGmQGxRJEiKglgVYseC3Phwhc+Y4mxW1JCPWBInzd8C4ji+MCRAro8VZYqD4xT+ZfkFQ/PFNmcL2FEKvL8wOyFUXh+sjcuR5Q/ngl3iC5mJQzr8gpSIobnw+IFB8rljz/jCxHiFzgdRYUCcfCxOEeXFKPxxM35eiJQ3g9i1oCheMRZPKoQLUq6PZ4oKYxLkeeLFOZywGHk++DIQAVggENCBBLYMMAnkAEFnX2MfvJL3BAMOEIMswAcOCmZoRLKsRwiP8aAY/AkRHxQMjwuQ9fJBEeS/DrPyowPIlPUWyUbkgicQ54NwkAevJbJRwuFoSeAxZAT/iM6BjQvzzYNN2v/v+SH2O8OETISCkQxFpKsNeRKDiIHEUGIw0RY3wH1xbzwCHv1hc8YZuOfQPL77E54QuggPCdcI3YRbEwUl4p+yjATdUD9YUYuMH2uBW0FNNzwA94HqUBnXwQ2AA+4K4zBxPxjZDbIsRd7SqtB/0v7bDH64Gwo/shMZJeuS/ck2P49UtVN1G1aR1vrH+shzzRiuN2u45+f4rB+qz4Pn8J89sYXYAawdO4mdw45gjYCOHceasA7sqBQPr67HstU1FC1Olk8u1BH8I97QnZVWssCp1qnX6Yu8r5A/VfqOBqxJomliQVZ2IZ0Jvwh8OlvIdRxJd3ZydgFA+n2Rv77exMq+G4hOx3du3h8A+BwfHBw8/J0LOw7APg/4+Dd/52wY8NOhDMDZZq5EXCTncOmBAN8SavBJ0wfGwBzYwPk4A3fgDfxBEAgD0SABpIIJMPtsuM7FYAqYAeaCUlAOloHVYD3YBLaCnWAP2A8awRFwEpwBF8AlcA3cgaunB7wA/eAd+IwgCAmhIjREHzFBLBF7xBlhIL5IEBKBxCGpSDqShQgRCTIDmYeUIyuQ9cgWpAbZhzQjJ5FzSBdyC3mA9CKvkU8ohqqgWqgRaoWOQhkoEw1HE9DxaBY6GS1G56NL0LVoNbobbUBPohfQa2g3+gIdwACmjOlgppgDxsBYWDSWhmViYmwWVoZVYNVYHdYC7/MVrBvrwz7iRJyG03EHuIJD8USci0/GZ+GL8fX4TrwBb8Ov4A/wfvwbgUowJNgTvAhsQgohizCFUEqoIGwnHCKchs9SD+EdkUjUIVoTPeCzmErMIU4nLiZuINYTTxC7iI+IAyQSSZ9kT/IhRZM4pEJSKWkdaTfpOOkyqYf0QUlZyUTJWSlYKU1JqFSiVKG0S+mY0mWlp0qfyepkS7IXOZrMI08jLyVvI7eQL5J7yJ8pGhRrig8lgZJDmUtZS6mjnKbcpbxRVlY2U/ZUjlUWKM9RXqu8V/ms8gPljyqaKnYqLJVxKhKVJSo7VE6o3FJ5Q6VSraj+1DRqIXUJtYZ6inqf+kGVpuqoylblqc5WrVRtUL2s+lKNrGapxlSboFasVqF2QO2iWp86Wd1KnaXOUZ+lXqnerH5DfUCDpjFaI1ojX2Oxxi6NcxrPNEmaVppBmjzN+ZpbNU9pPqJhNHMai8alzaNto52m9WgRtay12Fo5WuVae7Q6tfq1NbVdtZO0p2pXah/V7tbBdKx02Dp5Okt19utc1/mka6TL1OXrLtKt072s+15vhJ6/Hl+vTK9e75reJ326fpB+rv5y/Ub9ewa4gZ1BrMEUg40Gpw36RmiN8B7BHVE2Yv+I24aooZ1hnOF0w62GHYYDRsZGIUYio3VGp4z6jHWM/Y1zjFcZHzPuNaGZ+JoITFaZHDd5TtemM+l59LX0Nnq/qaFpqKnEdItpp+lnM2uzRLMSs3qze+YUc4Z5pvkq81bzfgsTi0iLGRa1FrctyZYMy2zLNZbtlu+trK2SrRZYNVo9s9azZlsXW9da37Wh2vjZTLaptrlqS7Rl2ObabrC9ZIfaudll21XaXbRH7d3tBfYb7LtGEkZ6jhSOrB55w0HFgelQ5FDr8MBRxzHCscSx0fHlKItRaaOWj2of9c3JzSnPaZvTndGao8NGl4xuGf3a2c6Z61zpfNWF6hLsMtulyeWVq70r33Wj6003mluk2wK3Vrev7h7uYvc6914PC490jyqPGwwtRgxjMeOsJ8EzwHO25xHPj17uXoVe+73+8nbwzvXe5f1sjPUY/phtYx75mPlwfLb4dPvSfdN9N/t2+5n6cfyq/R76m/vz/Lf7P2XaMnOYu5kvA5wCxAGHAt6zvFgzWScCscCQwLLAziDNoMSg9UH3g82Cs4Jrg/tD3EKmh5wIJYSGhy4PvcE2YnPZNez+MI+wmWFt4Srh8eHrwx9G2EWII1oi0ciwyJWRd6Mso4RRjdEgmh29MvpejHXM5JjDscTYmNjK2Cdxo+NmxLXH0+Inxu+Kf5cQkLA04U6iTaIksTVJLWlcUk3S++TA5BXJ3SmjUmamXEg1SBWkNqWR0pLStqcNjA0au3pszzi3caXjro+3Hj91/LkJBhPyJhydqDaRM/FAOiE9OX1X+hdONKeaM5DBzqjK6OeyuGu4L3j+vFW8Xr4PfwX/aaZP5orMZ1k+WSuzerP9siuy+wQswXrBq5zQnE0573Ojc3fkDuYl59XnK+Wn5zcLNYW5wrZJxpOmTuoS2YtKRd2TvSavntwvDhdvL0AKxhc0FWrBH/kOiY3kF8mDIt+iyqIPU5KmHJiqMVU4tWOa3bRF054WBxf/Nh2fzp3eOsN0xtwZD2YyZ26ZhczKmNU623z2/Nk9c0Lm7JxLmZs79/cSp5IVJW/nJc9rmW80f878R7+E/FJbqloqLr2xwHvBpoX4QsHCzkUui9Yt+lbGKztf7lReUf5lMXfx+V9H/7r218ElmUs6l7ov3biMuEy47Ppyv+U7V2isKF7xaGXkyoZV9FVlq96unrj6XIVrxaY1lDWSNd1rI9Y2rbNYt2zdl/XZ669VBlTWVxlWLap6v4G34fJG/411m4w2lW/6tFmw+eaWkC0N1VbVFVuJW4u2PtmWtK39N8ZvNdsNtpdv/7pDuKN7Z9zOthqPmppdhruW1qK1ktre3eN2X9oTuKepzqFuS71OfflesFey9/m+9H3X94fvbz3AOFB30PJg1SHaobIGpGFaQ39jdmN3U2pTV3NYc2uLd8uhw46HdxwxPVJ5VPvo0mOUY/OPDR4vPj5wQnSi72TWyUetE1vvnEo5dbUttq3zdPjps2eCz5xqZ7YfP+tz9sg5r3PN5xnnGy+4X2jocOs49Lvb74c63TsbLnpcbLrkeamla0zXsct+l09eCbxy5ir76oVrUde6ridev3lj3I3um7ybz27l3Xp1u+j25ztz7hLult1Tv1dx3/B+9R+2f9R3u3cffRD4oONh/MM7j7iPXjwuePylZ/4T6pOKpyZPa545PzvSG9x76fnY5z0vRC8+95X+qfFn1Uublwf/8v+roz+lv+eV+NXg68Vv9N/seOv6tnUgZuD+u/x3n9+XfdD/sPMj42P7p+RPTz9P+UL6svar7deWb+Hf7g7mDw6KOGKO7FcAgw3NzATg9Q4AqKkA0OD+jDJWvv+TGSLfs8oQ+E9YvkeUmTsAdfD/PbYP/t3cAGDvNrj9gvpq4wCIoQKQ4AlQF5fhNrRXk+0rpUaE+4DNMV8z8jPAvzH5nvOHvH8+A6mqK/j5/C8NgXxFAT9HvgAAAFZlWElmTU0AKgAAAAgAAYdpAAQAAAABAAAAGgAAAAAAA5KGAAcAAAASAAAARKACAAQAAAABAAAAlqADAAQAAAABAAAAcQAAAABBU0NJSQAAAFNjcmVlbnNob3R1w/11AAAB1mlUWHRYTUw6Y29tLmFkb2JlLnhtcAAAAAAAPHg6eG1wbWV0YSB4bWxuczp4PSJhZG9iZTpuczptZXRhLyIgeDp4bXB0az0iWE1QIENvcmUgNi4wLjAiPgogICA8cmRmOlJERiB4bWxuczpyZGY9Imh0dHA6Ly93d3cudzMub3JnLzE5OTkvMDIvMjItcmRmLXN5bnRheC1ucyMiPgogICAgICA8cmRmOkRlc2NyaXB0aW9uIHJkZjphYm91dD0iIgogICAgICAgICAgICB4bWxuczpleGlmPSJodHRwOi8vbnMuYWRvYmUuY29tL2V4aWYvMS4wLyI+CiAgICAgICAgIDxleGlmOlBpeGVsWURpbWVuc2lvbj4xMTM8L2V4aWY6UGl4ZWxZRGltZW5zaW9uPgogICAgICAgICA8ZXhpZjpQaXhlbFhEaW1lbnNpb24+MTUwPC9leGlmOlBpeGVsWERpbWVuc2lvbj4KICAgICAgICAgPGV4aWY6VXNlckNvbW1lbnQ+U2NyZWVuc2hvdDwvZXhpZjpVc2VyQ29tbWVudD4KICAgICAgPC9yZGY6RGVzY3JpcHRpb24+CiAgIDwvcmRmOlJERj4KPC94OnhtcG1ldGE+CtNCyDEAACqXSURBVHgB7V0JfBRFuv8mk8nkDglJOJJACEc4wikCyiUigqigArq6qzxXfa7PA6/14fXW3dW3Hm+fuuJTvJUV/a0Hoi4gInIp4dQI4UxCyEXInZA7mcyrf/VUT3dPz0xPMkGyzvf79XR3dVV1VfV/vvrq+76qMtkZ0c9MFRUVtHv3bho5ciSlpqb+zKUJvN4fLWA6W8Bqamqio0ePUlpaGkVHR8tlb29vp9tvv50KCgooLi6O3nnnHQoLC5OfBy56ZgsEn61i33XXXbrgaWtrUxUB9wFgqZqkR94EnY1SgyuhuwM1NzdTQ0OD/FqAaOnSpRQeHk4PP/ywipvJkQIXPa4Fuh1YAFVpbREljYojU0gHNbXX0/pjH9C3Rz+n3LLDhOfoGufMmUPjxo3rcQ0YKLB+C3RbVwiZ6rOt79GuvZ+SyUQUMc1Ok2ZE0+6X6uin4s8pLzicqJbIdsROOZ/Z6ZoLl+qXMBDaI1vA78ACB/po05u06/tPpQYJIbIkBVFEPLugDuo9KoiKd4ZS+kBne1UcbaQ1Ua9SbXIOLZ34IAUH+71YzpcFrs5KC/h1VFhUmU//88rt1FFPFAQcgQCs8R0UmcA4FKOm/Dba93objft3osiBUljDoVayJ7TzOPbaaPrPaa8FBHjeWj33x2/Agrz07pH/pNbSdmrcb5OAxUCFbjBqupXMoeyCkd1mp4aiJopIDiOT2cTvKwrrqOg06xcZ9R/YiwbGpNMDU1cEOBdvkZ7545c+ByO+t/c/QpY4E4X0DabmEJtua5Tn19KxnDL+LLzUykGEm4rcOupdNZOKS06SJTSWdp7cRR9YXqEbL7xbN59A4LnfAl0eFUKmevmth6nlDOv/GIEzmazqijfVMxVDdRMH1exhi+nmCcvovOBrKWdlEB3JrKR+8eMo7vgYKv+xnG6f+iBdN/R3tKvoE8IAIEA9swW6DKyvt62hitICMjU4mV9wf3W21qAI3jq9TKF03cTf0lUzb6KBVRdRcVYrzUq5ng6c2EuTfxNNr/7fm5ScnEyTJszg8VfuepyrI3pm0/6yS90lGQsc5aFHr+ItGNybqNecULk1z+xr4UI8AiInh3BO9sOuAs6NLr/weqorb6FTRVUUkWCjJ7fewdONTZhJAyKTaG/ldxSVVsNlsLT2SwJdotyqPefCyWY6Ueb9B/bKqewtkmAOgRwUOS6EOhzWmiCL9GzYsAT6Im81FdQX0+IZ11PCwDDaeeQr6sXUEX36RlNldSZVsrRRaaEcVMjnaN1m9huQtdAWPYm6BKzs7G1yXTtambmmsJ3CUhmKGAFgQWSnxrpmqq9x2gOT06x0smU7Pb9FStvBZDKAChQR62p8bjU18O4woNviTdRjfjoNLAjtp8rzVRVtPmijjkY7hadbOLA4qFqcoELkenafmBAlcySRAVdDVDdTU30rVVXaKWmglSLjwyg8qE9A7SAaqQedOw0s1LGyqoBX1SSUoeyuNa+D2mtbKXK8IpDHcv6UlZ+RuZQIhW7rxw3l/La5up2SF6SQPdZO8wbdIqIEzj2oBdTDNx8KfrLqOFnP6yBznJRI1rSz2w7GcRqzWyk82inMK7MOamZKUqZ+UFJYnzACoEr2NTDBnilZw9nz+hiaMuQiZbTAdQ9pgU5xrMycLfTJ0afIFG2iXrOtXEiHrspcH0ytpzoY22LgYgco0mrh3Z90J/1CrmpkXA3AE8I+9F+z7k2jnOxa3g1GxIZSimmUMlnguge1gM/Agpb9s/3PUkRKGKFLizCHkdnMABTKBO94YsI781hgHAkjQYCGc606SbYS7RLfK4o/R3qQEnzDxsXwdPXljTR3yq9EksC5h7WAz8D69IuV1HDARsHRGvW6ouLCLogggAujvXCbs1sUXAqjQQjtUEsI7oX706V1tCT9PkrunarINXDZk1rAJxmrro75Uu3eRnYm/jTsa+ScRisruas8wCQOZRyEcTMQO4NwDyP09MHzldEC1z2sBXwC1oEjWXL12pkmM6g22EV+kiP4cAEuJY62qiC6Y/yzARWDD+13Lkb1uStEJUwOPSYE9cRJUbzrgm6qgemhiM0mE75XnioMOay5icVXkL3OTssufj3g965ok5566ROwkhJT1PXE6I/JR9YDIVTTwmw6ZKLgfowJJqijKe/AmaA41VLv0DS644JnA6DSNkwPvfcJWH369KGEQQO4N4Oob1NuG9nY4E7osWxVdkJ3ZoljagcHAUwAoJZD4THUDovG3s9lqoDZRrRYzz/7BCzM+Ss/wVxkHF2hvdXOPEQloZs3hUPZ3nKqmQFLutEK93aHD6CJqSgAquWz3wmM/no+jlxq4BOwPv56tSoD61AzhaYEU0dTK7WfYrqrKKa3Sg+TuRU4FYiDCTP5G6XkZrtkqA5rMFPv8D5SYOD3X6oFDAMLRufC3H0yt7IMNHFQQT0AF5n2QWYOKLsNLEniYsJtBtyJhzlm1tts7VIjRhKVnMmnwWEjpPvA779MCxhWN4huEDW39DNR9KQQrnlHVwdwCZkK194IQBNHed1pb9EDz3tgCxgGlsVi4YI76tjOjMzwveKa83Y7ZX9TyKd1QYWgJD1hXfkc14VFP1FJQZZ8aJ8H7ntmCxgGFkZs/RJSeS3tTM0A36vanS3U9kMQ9W9KoOZjNmo63cTthMNO96P6CrX3AhJC1uIHA6OdHRDek/vUUVzvA/xob9slr/HAXxT46bEtYBhYqOHsy68hM5OLQPBegMAOTwZBthIzJVRH0dUXT6MJtjSiU2ZKaU7gGnooP6nBzj0gzA0WwhHeGEZ1p4OoIM9KecfPUHNjLEVESBMvRJ6Bc89sAcPCO6o3OHEEnTfvCtq34UsOLKG7wmjQnCrpEYpbqnlLAFxX0zR+vXVPAX1RtpHCIpgLTUMjP/MHDENFoUE0e8TV/Dagx+LN8C/x4/MsHczMWf73O8meWywrRUPS2NoMIyW9FVQMvcuiKNTOXIvNUlhFxxkqDJW8Q7Wthi5x2ZTXA7osbcP08HufOBbqWtl4mkL6F1Jxeyv1bQ2j4Bg2Cuzn0Hqy5xgVlseybq2pXNJfIUzCF5K7kCnYxJY0+oIWZixlky5OUEtzJVlDe1P/AWNd4gYCek4L+AysA8d2k73ATHDIA8Hup3VBhpMfMdld0l/xaB5/sovW08w+VkrsG04Wq4mKT+awWdDDAguDeGy1c/uhz8AqPHKcWk/aqZ5J7VHnWXWnbIFrAWx6xmZPzQEhHhQZkxEAlaeG6gHPfAaWqBNGhJjtHD4qhLsZQ8sOdYM1KpLa61pocEhfOhZSxKPDFx7TwuwRDo27yMRxbq/soGDLZBo2OtD9aZqmx976LLyv3/wRrd/4hiy4Y/2rINZ9KWlK8lBasGAyrdm8gwdPHTmBn19i6zxQogZczIiNLhPzB2+d8OeAEK9syB587TOwsLjai5/fQW3F0mwcAAsODqYQB7jYfWJCPN0weQaXmdA2OSdKaGfOETpmKSQI6+4I4MKia9Dy19TU0Jmqn6itpZJ1jcMCwry7RjtHw30GFuqBhWm/OfE293uH04IAVhBTnsIgDRmr/mQjDQhJpIKqKhbYzqeKGWmDuMpEWjByKqUNjeKCPNIcPVhHI8fdYSR5IM450gKdkrFmpS/gxV/XsYJsx9kKDfWSjTC4dxAHFXRZWAayion4YbEWpnpwqiO81bsy5jTVWiuprNTMNfGIn5z2a2/JAs/PsRboFMcSdXhhy4OUU7aXytiKfKDEwdGEyaggsdAHroV/O5ShMOXYTEzSl5YfxWMXsh0y0z1LXqXU1FSXZwiAC09RURHfkCA/P58we6ixsZGvFY+lvZFuwIABbtPrZhoI9GsLdBpY+LiP/P1KeQEQbakAJkzrAvfCJAtTmZlmp06nmecPIJh4NpV/y5M02dlOFMzUIxNzBkSYtW0APTz3fyk+ns2CdRAmy3744Yd8W5SsrCyPi7LFxMTQmDFj6NZbb6Wrrroq4EsvGvEsnbsErAf/dDn3Gg1OYE5/aRI4sLgtVAsdTXZC1zg2bACNHpRGQwb151WCIP9tbpZbE4+y3i0FyfTXm1/jU8E+/vhjevTRR+nYsWPKKF6vYX8cPnw4PfPMMzR/fmCuotcG81OETgML73/+zfupoDRbGhEqzDbCOI04k3oNpZGjU3DJAVUQXOZxZMgjKn6G119DhzNz6YUXXtDlUAAONncKDQ3l26lUscECuKmWEO+RRx6h5cuXB5Sv2sbphvsuAeu73dvp46+fVKkaBKiCwrCCcigFhTM/LbZgCOYbelI1uKvb1ysO0cENp1VgAUguuOACuuKKK2jKlCm8u8RePJCz0F1mZmbSl19+STt37nRJd++999Kf/vSnALjcNbifwrsELHCGl959iAqrDvGNAlAmM1uBJmywRV4URJQTspbWxCNPsmCRmhqYQM8ozOSUt/b8M5++ez9fBY5hw4bxLhHdmlL+4okVPwDYunXr6KmnnlJ1nwAlwu6///7AbGtFe/n7skvAQmHgRvPq6kepsJ6BixE4lmmAjSLiwvhcQrHqDJ4pwYURIsCkBBLiiNHiyZ8qac1/HVCB6pJLLqEXX3yRb5jJ4xr4+fHHH7kAv2/fPjk2BPvPP/+cZsyYIYcFLvzbAj55kOq9GtvC3b30WUqJHMkfF9SUccBgiSKtz7uYtcMjstHf2JA0wlQwrLMlH9DMm0yU+WGeClQpY2Loiaf+yydQ4T3YUey9994jcDpBtbW19Oc//5mrKURY4OzfFugysFAcdC/RoxLJ3N9Gw6cmU0JqDNdjYfkiMWsH611dGzeNhjYl82PpiDl045yLKcka61Kjk1kVdOqQc09D5H/dY+fTjoKvVWBzSegmAFsCP//886qub8uWLbRjh2TLdJPMYzDEAHBrvYGCx4ReHop8kXd3kXiHv8uuLG+nNO/KDHCNAhaeyZY3XdI+5/eMC4EAJhDUDjBSF7SyUaJDqcofsJ8f1xWqPljGvD6coxXWbqNd+3fS1EnTRVTD50svvZSrG9AFglDmd999l2bNmuUiyB86dIigeAVFRkbShRdeyEEJuQ2AXL9+PVfOtrD1KmJjYzlXnD17Np1//vkuefFMvPyIfHft2sXlwerqarJarVzJO378eJo2bRqlp6d7zRt1+v7776m+vp6/UbnHtt47UHZwcrTBpEmTPMqsXqrg8rjLMhZyRIWe2LREnlvo8hZHAHb+EhwKvvE22BD5ZFZnCszcWXVPJptkgUVGJG547+qLZFsjdFtP/+Zlr43szNF5BWF+4cKFMmgTExMJHzNVo+H/wx/+wEeO4JTQgX377bcEsD322GMuI02RO+S2uXPn8l1ijW7oCa700Ucf0d/+9jfypPBFOTECfuCBBzyKArBATJ06lY4cOcKLBfXK448/Ths3bqSnn37abdlRT4yyn3zySb/JnX7pClGLYDF9R7S0zhlrwFf1q+fK0Y4YV1AhCcxDAlS4j+oXLIMK93CLVm5cgDCjhH8mNjsXVFZWRnv37hW3Lmf8YUAA1Y033kjbt2+XQYmPgUMQ5LZ//OMfdN1119G2bdtEsNszQIB9sm+55RbCwEK8Sy8ByvnWW28Zzht5ifxWr15NN998s6rs2ncgLuq2YMECPpLWPu/MvbNlOpPakQYNHBYSQc0k2Qw9ZYWRoScqOyqtSyriDBzbm0LDmPLTsZYWdGGQtSZPuED1YUV8T2cMNMBNlNp7cKzFixe7TYaPetttt/GuD5Fgg7z22mtp8uTJXG+2detWrjNDPBDyRvw1a9a45S7gVPfddx8HC0/EftCG4I7oktDtYd9sjGihkxN5Hzx4kAN87dq1hrY5Rvp33nmHp0f+/fv3510f6oCuEZwtL885SMKfA+WC2KD804gy+nL2C7DwwnhrKhXRKa/vFsK8XkTotUpya1SPEodEy6ASDyrsO7kRWtuFieeeztOnT+ecRcRB4+NDA3R6hI8qPizUHa+//rqq67zppps4h4JeTKg0AK4//vGP/KPq5fvmm2+qQIVuFN3Wb3/7Wxc5B+VD1yxkw4KCArrnnns4mGFw90QiDfIH2O+8805V2SFHvvzyyyqrBsqOA/JZV8hvXWFabNcKwivBtPPNdZKiVFQqJtG5KK4Ig2pi874N4tanM7pC5b8RgjK4gzcCID/44APVhxFpoA974403VCqNr776istmIo44g1M899xz4paXBTLWQw895AIqRAKHBRDRTQmCRQEqFCMEUCH/v/zlLy5lT2WyJcLx51ASrBZdJb8Ba2j8GMNlQdemR1CY1ldLQjueAwDBbOluPcpu/r5TeiiM8pR05oy661U+E9fi43jS9AMAd999twxadCuffPKJLOuIvCArgesIwke94YYbxK3uGe8FB4QQD4JMhC7OiEoCA4olS5bI5dK+AG2MQYHyzyY4rzauL/d+A1bfmGS+kp+Rl/PpYW4i2thibkqK6y2pKZRhuG6xFPDuUBvu7V7bfTQ3s02kHMNzd2nxcYyM9DByUw4OoCeD35ggAEHJDfQ+qoirPWdkZNBFF10kB2MUefToUfle7wL5A1R63bEyPvaIhPwlCIb8rpLfgIVKDOo1uavlMZw+PCaEMg9vMxy/sxFRr8svv9xQcnwgJQBPnz6t4k64V4IBQ/xBgwYZyhvlQHcsCFzLm4IXXh9GZCW+klCCc+FYiAddJb8BCwWZO/RX3B7orVCeBHhtWuwE5o7K7SUuXY27uCIcw3wlwd1G2z0qn2OREjgMGiF8fIzsBEF2++mnn8QtV1souUG/fv34xBGAxMihLccPP/wg56130atXL7n71HsuwgAseIf4k/w2KkSh+E4SbGMlilF/PL0CK1UI4jk8SWP6hMp6LN7YNZCBrCKK6lzWks9n83iSfVQJ2I2224uK0pfhRDrIV/hARmnw4MFcXhFAKS93rlkBwR3hgiDgI75RQretJKWspgwX1yEhIeLyrJ/9CiyUHtvAfVX1vNeKiGn4qogm5oka7XSbwbPaMnVjKuNbLBUcKL4AS6m3QV5JSUkel06CTIYuxShp//nwEROk5ZYQ8HF0lmBS8kQwC/1c5NeuEJWYmDrNkBCv1x3CvNN/sJo7lOXUcQWpXgNhP5/iskK9R27DoGFWEmxl3oRbZfyuXCtB1pV8RFp/5yfy9cfZ7xwLcsYVQ5YZ4lp63WFiurprOplV6aIgFRVvsUnGVnHv7YxRGTTZSoIG3Ru1trZ6iyI/135sJQdTXiMBFKKXXXaZnNbXC6F+8DXd2Yjvd2Ch0Ni8cuvWD6k5zLMmXq87xBSyaLbyjLAXVhc2U/7+CkqdEO/SHlYD9kllIhiTS0pK5CCYNiZOnCjf612g+4JcZrS7LS0tVclRCYrRllbVgVGkJ3OSXnl6Spjfu0JR8V9nLPc6QtTrDqFGSDtfDSK40YDkNUyZ6QfXWHwEBCMxTB/igKlCSxCa4ZOlFJ5hosHH9USQgTDd3ygp1QkQ/JV6LWi6wdEFCS8Ecf+vdO42YGGEONg+x2tbadfWQoIR86WRlUh8IrOGsjYU8TVMsY6pODDxdXvOSra93Q6Ki9otH401612s9LDyw5dKED760qVLVR9aPFOetSoD5TPtNUZ9x48fl4PxDqUeCRxSORBAt4w0RknYDVesWMHrp/cHMppXd8frNmCh4NdPuoNCm/p5rIOSa3GOxHzhk+JDaNAUpxAPLpP5QR6dzKl0ujA73Jkre5VRZsVBvgAJFm7DgXUfmuqcHxhuLL///e9V3AradDjmeSO8W880o5du9+7dKr0VlKXYf0gQrpW6KKgL4CNmhCAfvvTSS9xPDB4IMAPBTedcpW4FFtg+ukTt+u9wncFy3cKFRnAtjArhFgMj86V3j+Kylmg4yFybXjnM5S0RhjPS7Ck4TN/ustLufQP4sXlrHJ03RXLow4eDL5XwUEAacI6HH37Y8GgQrjFwlvNEkMVWrlwpqw9Q90WLFqnegdEnyqIkGKSNcJ49e/ZwgCOt6M7h3nKuUrcCS1QaC7LBexQr0GCxtsqPWqjxExNVrW3h9/U/tlJHXhBftlukgaw1d9lIVVcFQX7jM3m0+4MTfI14EZciJHsivAxwiAbHhAn8s5WKRHxwhCtNL3I+bi4gZ4FLoCvSI3AT5KnkPmPHjtWdeY1pa7D7CYKP1bJlyzyCCzIk3HKUOi+j9kvxnrN9dkqS3fjmxg1sRZpmJm0TcOw00diYUrqpXLrHArghaR1sWW+7tPwRmzGNkeDFdw2lzSuOy/9SNO7Wd2vpp81FBCdA+GvBtWZvrxz2jnXccQ2mDtjR4FekJIAKArw3bwJlGnGNvOAdimn+AK8wA+Gjw6fp008/lcsI2QozrvVGkgjDdH+lizT8poqLi7mflTJvjEbRjYOrAYCCBMcV9+fiuduBhd297FCe2xhXMTtBZXJ4zqhWVGbgGmZJobkZU+irA5l0rLGQxlyYRCOiUujt17bKKgg0JLhXdWExuyrmXG0NHUCw/HH5jeIHH0NwMADMKCEuLP/gegAXXIlxDzUCNN+FhYUqToL4cNrDQiTuCFwLAAcXFN0aXFWUeSMtzEFQj4g4CANofeW4SHe2yXgLd7JkkCvGnj+NsjK/k3MQoJID2IXYAzG3tZQHYzYPZvJEhzFD6vxwuuzimXT3488TRojKhkZk7T3PwPGDD4FuA16YyhGaMo6naxih8SFXrVrFR5V4F0Cm7F5FeoAXgwQAxBt44e8OvRYmO4i8POWNd8BKgFncPUH31e3AQoPcdPuD9HDVDratr4lajrPljZivXRDzs8Ia8VhyEhuXg3Nhr8NWUwOt2L6Gbpo4C0k5AWDHarPpqsfGU1FeCx1el0vQyJ85JRl0lcDCBwUYUlJSaN68eXTllVfK07dEfr6coW6A/gneoxiVwcFOqWRFXuBg0InB0c8X2Q1OflDQvv3229z1GG41Wm9W1AWjSXiQal2LtfWAl0Lfvn1JWApgBzVK8LQQsh/kw66SX6Z/eSsERkzLtyzk0bApuVLFgEBMZoUWXWxNh1Fk0xk2YVPYb5lHh3JBEZiCsNBI8ckWamfeD0pD9bRhN9KimQu54lOr6fZWTvFcTP/CPYD6zTffyNOioHeCWgHGbBAUoOCEAF9XCPnCKTAnJ4egvQcBJEOGDOF10ZPX9N6nNHQDaEbtoBiAYOtAEExP3jiu3ruVYWeFYx0q2y9tQcfUDJh6H2m1qNaHl3a975DLBVMPB1K0HKS6wIwdqBmS02C9V1vwI4vKudJRKB7BQToLMNVLHTf4wN2xzhbyxeELx9MrX2frCgAaBaHee7VhZwVYeCn0VtYgxtb7RnO91ulSyWcrnvm0Y+U/f1FSRjtNyiiQs/vnFz/Qol8tk+8DF2enBc4KsJJjU6l5k4nNO2ykiClmwsRVsUapUJL6o7qYRR1j7csWxpX60PozNgqLHuqPrAN5+NgCZwVYu75eS3YmMmHk13LcxpeSDAo38UVusZMFCAu0cW8HDxWAyQcLuMmylyYu9j+MDJ9O4TEjuEdCYnIkZf7zXXrxjU94zKUvPkm9UjybmBBxYIizD4bwPDiyt+ZNRAc/2UDfvP+RS7g2IGroQJowbjylTpto6N3a9O7uW8400KtL75EfL37sfkqaMEq+9/Uib+tu+uLFlTxZ+gjPU/ki+8RT/7Ej+PusURG6rzorwDpYcFBWJ9iYp7HtSIdjZ4sgagNKoBxNDqL2Wqeea8TAZNWGAzKoUA037tn28Haqqy9lssp0p3KyroHas6EoNVFDeZXfPm5NMVtlMNtpj9RtXRZYzeJ889kmMjNBevjC+TTldzf4pQzHN7Lp/or3H2BA7zMmvdNCd12Jsz7Zinzd1Qvh4WxRkem/v4MyFs1zidbtwIIqoLpVknmEMlQsJwlAgUxMxGp3aOARNiWRbZkyZzK9vmk9FQYz9TziMGEd4PBGp6qZ7sKFvKdzSWI4wM4aOI7C4125WmOFVJbG6iqysRFX9sdr6XRWNi185akugQttenTdFl5CABZ5n/hmG9X7CbQAjF59RJNU55/k72xks3k2/eE5FjeO0mZOEo/5uVuBhQZYsWM5WcazTZgKzHzXMBlUjmIAVNahZrIxdxgbtvdllFNRws/xQVFUUFcmcyilyoFH0PyAq/WLdf3Ammg+36LbcU8m/q8deul03SgVx/PpxI69dGD1p4QPUcHcajY89DRd/dp/sw2t9LsR3YwUgfWnyqks+zAPmfjvN9Gul9/keeez94y7/kpFzM5dXrDsVhpxxcVuE6NOmS+vovwd33OAbX/u1bMLrO2566jGeozJPazvYtPWmnq3MXB1UEeLs8vDHjxYeSYiJZQajrQx84+d7WjRwNeCx/a/o0+kyRX0tow3dhkbMdK7K4ycoZuLScNH0b+x/a8FeQOAhclh7uJA7sExiMlYn//HIxwApQcO0uEvN3caBAfXbOT5gFtlXH0p5W7cygCbQ0c+38QB4a4soj5Gzp7yQH1mP7GM1t5Rxt+Ld9cUnlJx4SAjL/E1DpRt2CXs05UvU3OhpB1HHhgNRk8L4fJUMNO8Q64yj+rgextCaRoxnM1vY9vU4cAGA2L3MKSFaQcczBPNHfs7F0UlVm+xtUPx5wSzpzzwbPjCS+jVD96Tj64IxeJdyOPiJx7ksha6rqz315BnTihSqs9IU7RzPw+MTR1Ikf0SaPClM/k9AAtu0nlCGxlrJwyCxv5a2ssbaU5n56hea7gr1NPMoquD2y6s8LD2Yx7bgSNZtGnLe1RRWsDNNK2nOhignO/kAHLsH+0Mla7wzMxlKaKI5DD6oS6P9h/OdUZjjI95aznvFVe9Q9No+uD5ihDtpX46bSzcQ+scHGW4afSy0A1LnTqB+o7OoOL9Pzj+6fk+j+QAHAAI1GfsKF5WcMO9r73Hu6WuCfHG2wjvj+4vnBhN1FRdgyCZvLYenNC++mwVZe3ZwRMJA/KY0dOolAnl5SckwRwPoU6AHbCDTWqBoA55quOM5NQXGa+/TJBcEs2FWAgXTn/eyM5ks19PXN7pEZG3/P31HN3L8AWXcGAhT8hevnBD/JGRBhwP3eBox2gMo0FwL8hvGBxABjOiVtGvlzGOhbRtTdKcA3Cs4BBmLlGQW2ChEms/fpm++WKdw+VFSgUXGIDrwFEJaCIvASrL6A5q2afoYRnIsENYfUOj5zVKRUaas6xmkHSesiDPo0HyZ0L/NRkzqbFkD9VZ4vxqvtEUxS+3CelOmfF0liSAG83Yxj4k5Cl8SAAJgAKBw6I7hKyDo2h3VheAxbP0+sNBvn23I56JYgelqNIoEKAKp7dWPcP0L+tVflQAVOg4tt/zvA4KHePkJAAVyDIoiIMnZKBJ3oHVxEx52HbOlm/mxmYppvdf2AOxFjyfOCFAhWS4FgcDFTZ0KmQjx8EjWqmm/EMqKcjynvnPGCMiIY5zGxShrdG3VZeL92dz4EAgAJCUhmII8eBiIKgiOiO/8cRuRA3pmfQLUOVu2slVHAiBeiJuhPMPgzBdjoWtTH78ajues76NbVXCACUofHQY90I4UyGxQQEqdIHYkQJkGsgUoPVB8uhP3n21LJhsUXaVhl3r6YD0wszjyRCNeKBwpvjKy62io9Y6PomirHQXM0InORWkUjT2a5zFy0m64SKsl9Dq29nHZ9pig4SPeYwpRUH4kJCrlISuT8hvhbv2MAD6Lr9JbWSi0oPHCJp4LaHrgyyVu+k7wjvQJYNG33CNiwHbBViowOqVTzJAMf3SSKJWyTtEfgfm8lniLITNxgEqWenJRnnCmAx5yjaZbXGS3cp8rVg8JmuBoKdCmFh+28x81TFS1JJ2axTtc+19UirbqDzjNso7vIZxLhPbkfUjBqw7NNGcHFbz4Ge6lcqD7s3IQAFyE5SgoNhBqXI3yAMcP0J+4wpTH+U3KQupTFDkHlm7Tpm1fC3AJAKSJoyn829eLG7ls0tXiHXU7Q0mipwTRFHTrTIoAA4c2DKOkwMsIiet4hMgM8Xb2NZy7B8Q0sS7Rm0cviGmyMBx1s7o0TzWvR2aOJp3C3H9ZjEfrQaKjDLreJWeGxyrqUby6hAc1BymdvvRrSALhNzU4lggDgACgQkoD9gjwc2QN2Qx37tD722E7hbviB86hCbfeYtbRa8Lx8rO3kamCGamSA/he+HwGih+YDwGATAdTHbSgkURVRLWBzJnuKowaj7RxB+BW0HmBtkds2ukO3bP/LXE6sgizNs5xB5BY5Mm82jwZ6ogSbGplD+kPBwv9ZZhNz+HvVL617M/b59EQ28DQCA3CW4BRSi6I/dkIphd8r/bT+nz9C0C+mmlNhq1mDlKMr2bHkEZHJkYx4CV6lYpjHQuwDp0YhuFL2LdF9Mpsbk1svFYyFLtlcwhL1XzSg330jzlMll7XRA32whQAaBJbUwdf4qoMlGSNXztAiHcX5G+TNW/A1z65P3fqJ/Ov6HVJwodGdopom+CSgB39yZwOWHCATeCHsxJol7KPw4bLLW10gk2aht8iS/Llkt59c0YpmtYdr7T+5UKWGCrvS5j3R8DFYgrLOMYyy12zQj7EQaFsIKgi2TRbVVMX8VcjCVvUNf4kKX4JFU2ksPGTNiVYtYAybf63ZNfq1yPXVO7hsD36jcTnuALkLg+1QtRNrze8+4PQ/sWsZGdRCa3XEFbEtgAYWcEJU2YQJZwzzpBgBDxfTdM+6+NVMBCwcE1sLmSIJhdbFWS23Aws+9GjpPYkz2hnXX8bNd6VhYx6rMzQ3O9qYncKUN5uIOh2JqlV8NUgw3IYS8UJOuuBHtzPICHAwA1OXkRLZ5xq4pTibTn8lkpgENWSZ4k/bE8lRndILo+cCp4Ucx7drlXHdWGR//KPCk+4+Dyl2HaUxn1nrkI7/yjKmKGp1uYPCUFwAtBcDPsRwg5S0sRsQrdhPah4h7CPYzKWGvhNyMv4oBB16bSXTHuBj0WjMs4oGG/76JX6MYL7+5xoAK3ynx1NfvYVbwVUiaf7xUgiKg04SSOGmEozTDmaWG2SAwAoPRdiFd8qE5eqoAFgTc+Ik2VFYAUc7GVYi4NV6kGEA5jsSnSAS5WD37v6EZVmejcQFDH/tAwNGMj8qlhw3ks6K7kvQsdC3+g2wRHgzK0f1SqTm7ndhA+bOb/ve8YwrN2Y6MqeAcYIWHCYf0Cpc+/yEgSbiaCZh5cDnZFKFbPNrl0hZP6zqdttW+qygEQBcewvZ3z29k+z4x7MG4DwjlyfAg157Ux12JJjwV1wYja/lTRcYZvyKTMCGCCDVCM/ACi/XW53DUGLjK0mfi91j4oOfkRzRg4hgpzvqS0EVcbEnqV70Yjlx/NM/TvjUtLMcQZRP7lx/LIolEbQJnYxuYkQqaC/Q6mFpQBnAT+TkZseQCkZMKRlKJGuk6UCTZJycRznAvxUKxqHfFE2dVnCO+uvZA6jrE7F2BNGTCH1m9boZKzkFXS6Xiae5409b2kv9NLE+BCdwnANFQ38U0ur54zjVZ9vZnNxnHdZVVZLN7tMpXD3w9toVkVzPdqUBplHSogNoVVGY13j71r+zBBPYOSBrZSLlOEDhu9RBXH+42Jtjz1gvdoLAac56bds9RQXIAFngXuSFIRSB8MoELeGUsucxddFQ5OA7UBCN0gXGSMEjTzwrkQQnyNIe9S/4AKZXQBFuaWjY66kvIIAqNEWCXmxvlL+JT3k6HVJHTl4EBKFQGAEmmW+nZMle9oUgNE5CcL57D5Oejbsh3Ukc9krAjW5dVKpoJe0bGUHn0xzUq/krDzRVkJWPpBCg2v9rixkshTeYZPluSXpQzVv64/XaH/QBMq8rMx+ckdmYOhUIyjQbNncG8Eo37pkMnAaVqbGgl5oBt01c25eyvbNGtoKtfQnykvMyzEi/q4z9X4E92Z0KjUX7+7S15DNO5UJN12yWWcCwlupQUVXgnALB1wCZeZnvjnatVIz12RBMiwjw5m2cxKv5mGDR7NZkaHcTApGxM+YeUlq7jA32pbYMiTAd2JU9vtrhTqcNjzPHlQIrbRfIVt0Ft+6hJId/DKFARupWwLEe7prCyjtzr5EtfTO8UzF46FB6jAPZOep7/tvk8GF8KbTcL/hpl2JKaCYCdhapaDYK4B5+mAHMZmPrsjyE929ocfkjiRFo++S9qEwE1kcNNgy2QqyDvG5KxwN7HUwfignfmo6lxc77orX+WbjMhhyvjaa1/K6Etc7Xv07nWBhYj4iA9MXUHwW88p+Yyn5ZMbGGttsLVTEBPSsTiakiCMHziRxznWhNDBNP3C5dRia6LvczZRZetJqmljU4wcS2hjR9Zelj40tt8Mws5hfFcLZWZurvtzpap3/Y+b5IHgs9QCul2h9t1YaKIo733ulrJ1TwGNGn0DYd2rrOJdlF3BFmhtyedJrPZISrdOolGJNby7qm+ap3JfQRerJF9ZuzJt4PrcbgFDwEIVAK7K0r1kDe1NEtdwVkwARgBFxO2bckGPU2Q6axW46koLGAZWV14SSPvLawGV5v2XV/1AjburBQLA6q6W/YXnGwDWLxwA3VX9ALC6q2V/4fkGgPULB0B3Vf//AcC5eij0WYrYAAAAAElFTkSuQmCC;" parent="HPb9iFdF9YaHOfAAJQnL-42" vertex="1">
          <mxGeometry x="3" y="6" width="59.73" height="45" as="geometry" />
        </mxCell>
        <mxCell id="HPb9iFdF9YaHOfAAJQnL-43" value="" style="aspect=fixed;perimeter=ellipsePerimeter;html=1;align=center;shadow=0;dashed=0;spacingTop=3;image;image=img/lib/active_directory/laptop_client.svg;fontSize=14;flipH=0;" parent="1" vertex="1">
          <mxGeometry x="-75" y="343" width="60" height="66.67" as="geometry" />
        </mxCell>
        <mxCell id="HPb9iFdF9YaHOfAAJQnL-44" value="Lab User" style="verticalLabelPosition=bottom;html=1;verticalAlign=top;align=center;strokeColor=none;fillColor=#00BEF2;shape=mxgraph.azure.user;fontSize=14;flipH=0;direction=east;flipV=0;" parent="1" vertex="1">
          <mxGeometry x="-123" y="347.00000000000006" width="47.5" height="50" as="geometry" />
        </mxCell>
        <mxCell id="HPb9iFdF9YaHOfAAJQnL-51" value="" style="rounded=0;orthogonalLoop=1;jettySize=auto;html=1;strokeWidth=3;" parent="1" source="HPb9iFdF9YaHOfAAJQnL-45" target="HPb9iFdF9YaHOfAAJQnL-8" edge="1">
          <mxGeometry relative="1" as="geometry" />
        </mxCell>
        <mxCell id="HPb9iFdF9YaHOfAAJQnL-45" value="" style="rounded=1;whiteSpace=wrap;html=1;fontSize=14;labelPosition=right;verticalLabelPosition=middle;align=left;verticalAlign=middle;fillColor=#dae8fc;strokeColor=#6c8ebf;" parent="1" vertex="1">
          <mxGeometry x="16" y="326" width="99" height="98" as="geometry" />
        </mxCell>
        <mxCell id="HPb9iFdF9YaHOfAAJQnL-48" value="" style="endArrow=none;html=1;rounded=0;entryX=1;entryY=0.5;entryDx=0;entryDy=0;fillColor=#ffe6cc;strokeColor=#d79b00;" parent="1" source="HPb9iFdF9YaHOfAAJQnL-45" target="HPb9iFdF9YaHOfAAJQnL-43" edge="1">
          <mxGeometry width="50" height="50" relative="1" as="geometry">
            <mxPoint x="-92" y="775" as="sourcePoint" />
            <mxPoint x="-42" y="725" as="targetPoint" />
          </mxGeometry>
        </mxCell>
        <mxCell id="HPb9iFdF9YaHOfAAJQnL-50" value="Red Hat&lt;br&gt;&lt;div style=&quot;&quot;&gt;&lt;span style=&quot;background-color: initial;&quot;&gt;Enterprise Linux&lt;/span&gt;&lt;/div&gt;" style="text;html=1;align=left;verticalAlign=middle;resizable=0;points=[];autosize=1;strokeColor=none;fillColor=none;" parent="1" vertex="1">
          <mxGeometry x="19" y="331" width="105" height="41" as="geometry" />
        </mxCell>
        <mxCell id="HPb9iFdF9YaHOfAAJQnL-52" value="OC Commands&lt;br&gt;Web Browser" style="text;html=1;align=center;verticalAlign=middle;resizable=0;points=[];autosize=1;strokeColor=none;fillColor=none;" parent="1" vertex="1">
          <mxGeometry x="139" y="335" width="101" height="41" as="geometry" />
        </mxCell>
        <mxCell id="Erepa9TIJoupjKRTR-r9-3" value="&lt;font style=&quot;font-size: 14px;&quot;&gt;Rook Ceph /&lt;br&gt;OpenShift Data Foundation&lt;/font&gt;" style="text;html=1;align=center;verticalAlign=middle;resizable=0;points=[];autosize=1;strokeColor=none;fillColor=none;" parent="1" vertex="1">
          <mxGeometry x="308" y="451" width="188" height="46" as="geometry" />
        </mxCell>
      </root>
    </mxGraphModel>
  </diagram>
</mxfile>
